<svg width="1000" height="1000" viewBox="0 0 1000 1000" fill="none" xmlns="http://www.w3.org/2000/svg">
<line x1="499.529" y1="-23.5469" x2="499.529" y2="1016.29" stroke="white" stroke-width="2"/>
<path d="M840.462 62.7793C840.462 125.395 687.925 247.203 499.761 247.203C311.596 247.203 159.059 125.395 159.059 62.7793" stroke="white" stroke-width="2"/>
<path d="M595 1104.58C466.992 1104.58 217.97 845.45 217.97 525.801C217.97 206.152 466.992 -52.9746 595 -52.9746" stroke="white" stroke-width="2"/>
<path d="M406.486 1104.58C534.495 1104.58 783.516 845.45 783.516 525.801C783.516 206.152 534.495 -52.9746 406.486 -52.9746" stroke="white" stroke-width="2"/>
<path d="M999.523 184.421C999.523 273.681 775.772 447.322 499.762 447.322C223.751 447.322 0.000244141 273.681 0.000244141 184.421" stroke="white" stroke-width="2"/>
<path d="M1038.8 413.97C1038.8 503.23 797.462 676.872 499.761 676.872C202.06 676.872 -39.2742 503.23 -39.2742 413.97" stroke="white" stroke-width="2"/>
<path d="M999.523 621.937C999.523 711.197 775.772 884.838 499.762 884.838C223.751 884.838 0.000244141 711.197 0.000244141 621.937" stroke="white" stroke-width="2"/>
</svg>
