<svg fill="none" height="630" viewBox="0 0 2421 630" width="2421" xmlns="http://www.w3.org/2000/svg" xmlns:xlink="http://www.w3.org/1999/xlink"><clipPath id="a"><path d="m0 0h2421v630h-2421z"/></clipPath><g clip-path="url(#a)"><path d="m-4.00012 472.38s-1.41.46 14.18002-17.09c21.1-23.76 55.19-34.94 56.25-85.12.74-34.93-13.61-50.49-13.61-50.49s13.31-.36 25.41 11 17.21 22.67 17.21 22.67 2.78-20.18 27.5201-43.42c37.82-35.53 82.05-19.5 82.12-19.48-24.95 20.84-37.17 40.17-43.99 67.41-11.76 46.97 21.08 105.6 70.01 116.07 46.59 9.97 83.14-34.57 67.63-87.49-3.92-13.37-22.5-65.25-22.35-83.68.3-37.7 13.31-69.27 48.34-97.43 29.87-24.01 75.92-56.63 55.71-117.5097 0 0 31.04 21.2497 33.45 77.8797 2.41 56.68-28.92 82.77-27.56 129.45 1.09 37.61 29.04 59.08 61.22 59.51 47.75.65 80.31-54.08 83.99-110.17 1.72-26.18-.83-64.59-11.09-84.41 15.55 9.81 20.55 11.25 38.72 31.82 20.41 23.1 30.08 52.64 33.4 83.28 4.38 40.39-10.21 82.32-30.32 116.23-23.55 39.71.92 67.24 24.54 70.85 38.83 5.93 61.57-34.27 48.1-72.54 0 0 21.07 1.01 35.4 28.64 5 9.64 9.2 25.35 21.48 25.35 16.75 0 21.7-29.49 44.6-48.38 28.36-23.4 53.83-17.67 53.92-17.65-35.24 42.07-27.28 79.31-26.96 83.86 1.83 26.12 23.53 60.91 56.88 62.41 34.5 1.55 52.86-32.79 52.97-55.49.13-25.71-9.47-37.68-19-66.89-5.76-17.67-11.6-35.68-9.17-53.95 8.78-65.92 62.79-78.48 101.71-126.61 26.86-33.22 26.82-60.53 24.55-73.42 2.26 3.16 35.24 55.13 13.46 109.64-7.47 18.7-19.07 34.89-30.75 51.12-9.6 13.34-19.65 27.71-21.73 44.47-1.91 15.41 1.93 33.07 13.88 43.84 13.85 12.48 37.35 11.67 52.92 2.81 11.56-6.58 18.71-19.11 22.76-31.36 2.81-8.5 4.36-17.39 5.21-26.28 3.4-35.81-11.01-67.95-18.43-83.76 0 0 44.13 11.79 69.75 42.44 24.85 29.73 27 55.28 27 55.28s19.19-3.7 36.24 4.45c0 0-29.72 30.4-29.72 97.58 0 22.8 12.62 58.38 31.96 71.67 16.06 11.03 39.93 12.6 57.89-1.67 27.83-22.11 29.89-72.83-4.23-94.37 0 0 19.08-7.73 46.7 7.82 0 0-.85-29.13 19.07-53.89 28.01-34.8 52.53-35.16 52.53-35.16s-18.6 30.15-20.37 93.79c-1.76 63.44 53.27 84.64 82.66 86.56 14.54.95 37.39-12.33 46.49-22.79 23.75-27.31-13.33-85.68-27.68-115.3-21.9-45.23-27.68-101.6.5-145.51 18.57-28.94 49.97-52.07 75.53-74.55 7.9-6.94 15.82-13.86 23.83-20.67 0 0-1.63 40.9-33.02 103.1-26.11 51.74-8.52 91.44 25.91 91.46 7.04.01 14.63-.57 21.08-3.65 6.25-2.98 11.31-7.8 15.03-13.61 11.46-17.96 10.55-38.64 4.76-58.46-3.7-12.67-18.26-37.49-21.25-42.88 0 0 60.77 14.02 91.14 68.79 12.54 22.61 15.68 48.27 4.19 88.13-7.3 25.33-26.85 48.09-34.19 73.61-5.89 20.48-.34 60.56 40.16 63.34 17.49 1.2 35.42-13.06 35.42-36.8s-15.27-27.6-9.22-59.98c6.32 14.56 23.78 21.97 31.43 25.76 16.56 8.19 38.78 20.37 52.27 36.91 12.39 15.18 9.88 29.42 18.53 32.94 7.36 2.99 25.48-7.6 25.48-42.38s-51.84-71.39-51.84-114.75 48.85-79.24 65.23-92.65c16.38-13.42 50.65-50.4 55.9-92.45 0 0 18.41 15.66 16.13 40.72s-8.87 30.05-44.07 73.27c-11.8 14.48-20.45 32.85-18.62 51.93 1.89 19.71 18.93 39.53 38.91 39.27 28.91-.37 32.62-29.86 32.42-39.63-.48-23.48-7.11-33.41-7.14-33.41 20.21 3.04 74.52 23.8 92.74 83.51 11.21 36.76 7.46 82.23 1.55 121.24 7.13.1 19.24-5.13 27.92-18.92 13.04-20.71 11.71-46.83 10.4-51.45 0 0 15.97 3.05 31.09 20.93 11.94 14.11 15.7 25.57 16.47 39.25 2.37 42.03 23.03 53.84 47.28 49.01 18.89-3.76 32.03-27 29.22-56.77-2.95-31.34-18.4-59.1-32.46-86.61-15.24-29.83-24.97-58.36-26.62-92.02-2.18-44.37 31.7-110.01 59.81-131.67 0 0 5.54 42.74 32.46 83.1 22.34 33.51 27.91 34.26 45.62 50 32.17 28.59 72.9 56.2 86.2 104.82 6.86 25.08 4.85 57.47 4.83 57.53.07-.26 6.55-1.2 7.3-1.43 2.22-.68 4.2-1.63 6.11-2.94 12.12-8.31 20.51-25.34 24.15-39.27 3.12-11.96 4.44-29.59 1.98-41.64-6.03-29.52-21.35-39.69-28.05-63.26-2.28-8.02-3.72-16.3-3.75-24.66-.01-4.35.36-8.7 1.11-12.99.4-2.26.9-4.49 1.5-6.7.29-1.07 2.62-6.06 2.21-6.85 12.95 24.87 31.39 36.84 46.99 49.12 67.98 53.51 88.36 107.9 87.77 175.99-.04 4.06-.78 8.16-.78 12.18l12.29 674.62-2440.73012-27.56z" fill="#ff4034"/></g></svg>