<svg fill="none" height="630" viewBox="0 0 2421 630" width="2421" xmlns="http://www.w3.org/2000/svg" xmlns:xlink="http://www.w3.org/1999/xlink"><clipPath id="a"><path d="m0 0h2421v630h-2421z"/></clipPath><g clip-path="url(#a)"><path d="m-8.00006 495.88s6.83-21.91 21.58996-40.17c14.76-18.26 41.22-32 41.22-66.94s-25.07-62.67-25.07-62.67 25.72 2.22 44.05 20.54c18.32 18.32 22.24 33.92 22.24 33.92s3.78-38 28.5201-61.24c37.82-35.53 93.44-19.54 93.52-19.51-9.89 1.59-31.5 18.52-44.94 43.18-31.75 58.27 1.82 112.02 50.75 122.49 46.59 9.97 104-26.42 88.49-79.33-3.92-13.37-12.33-24.88-19.29-36.94-35.02-60.67-16.74-118.26 35.41-160.18 29.87-24.01 87.95-47.32 78.31-95.07 0 0 27.35 19.97 27.35 57.71 0 22.99-3.7 46.5-14.61 67.34-10.63 20.31-25.78 39.28-29.05 62.61-5.22 37.27 29.74 54.86 61.92 54.86 41.87 0 61.78-51.18 61.02-78.99-.49-17.75 1.12-35.66-5.94-52.44-6.8-16.18-18.74-30.66-32.68-41.21 30.28-5.75 62.46 6.37 84.34 28.09s34.01 52.01 37.33 82.65c4.38 40.39-13.11 77.98-35.25 110.61-10.48 15.44-22.59 28-25.99 46.92-3.07 17.11 1.69 34.18 15.05 45.74 29.71 25.7 74.94 9.1 71.06-31.55 0 0-2.94-17.04-20.71-38.01 0 0 38.03 2.13 60.61 31.04 22.13 28.33 22.27 74.86 22.27 74.86s4.68-52.06 36.77-78.98c32.06-26.89 70.75-15.22 70.83-15.2-7.01-2.12-23.28 27.3-25.11 31.49-11 25.24-6.59 56.91 15.12 75.1 20.76 17.39 51.77 18.24 72.22.18 17.37-15.33 25.41-40.52 25.52-63.23.13-25.71-11.23-46.68-24.4-67.87-9.81-15.79-13.87-34.34-14.01-52.77-.49-66.12 59.76-71.48 97.35-120.66s15.56-109.9 7.5-121.19c2.26 3.16 9.93 5.97 13.12 8.41 10.44 7.97 19.43 17.87 26.49 28.93 22.34 35.01 25.54 82.44 7.55 119.98-15.19 31.71-57.37 57.61-57.38 95.2 0 31.11 39.28 43.73 62.47 29.09 9.8-6.19 16.84-16.64 18.7-28.07 1.66-10.18-.57-20.71-3.73-30.38-1.16-3.56-8.03-22.94-11.88-22.72 0 0 48.37-3.22 69.86 29.02s11.84 74.16 11.84 74.16 22.68-31.01 66.69-22.49c0 0-45.42 27.85-45.42 95.03 0 22.8 8.3 44.89 28.12 57.46 18.27 11.59 44.96 16.03 62.92 1.77 27.83-22.11 16.1-73.5-15.59-86.62 0 0 42.47-12.39 73.09 34.11 0 0-12.1-46.75 20.82-88.52s69.79-41.82 69.79-41.82-27.73 35.55-27.73 99.21c0 63.56 61.6 61.12 61.8 61.11 14.56-.59 31.82-12.02 40.92-22.48 23.76-27.31 14.95-75.84.61-105.46-11.29-23.32-27.61-43.5-32.27-69.6-4.13-23.13-4.84-54.11 9.63-74.14 16.86-23.34 24.25-33.88 58.27-58.2s37.23-58.93 23.66-87.88c0 0 27.86 9.63 40 49.27s-10.01 67.91-21.34 82.38c-11.95 15.25-23.42 30.54-28.99 49.52-4.36 14.86-4.24 31.66 3.55 45.05 13.14 22.58 47.84 24.8 64.34 4.75 14.51-17.63 8.33-44.13-3.93-61.19 0 0 36.85.49 62.32 44.52 12.95 22.38 12.28 49.14 5.11 73.28-7.51 25.27-26.21 45.73-32.47 71.54-3.36 13.87-2.83 28.66 1.52 42.25 3.75 11.71 10.48 22.69 20.23 30.19 12.3 9.46 31.29 13.19 45.33 5.04 0 0 21.73-14.36 21.73-38.1s-13.31-39.03-20.22-44.96c.47.4 8.34-1.8 9.23-1.9 8.52-.96 17.28.07 25.52 2.32 28.13 7.68 51.46 27.95 57.77 56.91 2.46 11.28 2.71 23.03 1.56 34.49-.23 2.31-.34 13.93-2.56 15.44 0 0 31.02-20.67 31.02-55.45s-18.87-50.02-26.55-63.98-33.59-33.67-33.59-77.04 34.71-71.59 34.71-71.59 16.88-16.46 33.26-29.88 54.24-39.35 54.24-67.62-6.28-43.76-20.32-57.8c0 0 41.23 4.39 60.24 42.99s3.61 77.43 3.61 77.43-9.73 35.21-41.62 71.44-9.97 65.79-9.97 65.79 11.04 15.72 32.09 14.21 29.29-23.16 31.43-33.54c2.15-10.38-1.07-31.5-14.14-44.92 3.84 3.95 17.86 5.88 23.09 8.27 70.86 32.39 77.16 109.89 55.03 175.93-4.6 13.73-10.59 26.99-17.93 39.47.71-1.21 12.21-3.2 14.24-4.06 5.07-2.15 9.35-5.12 13.88-8.12 8.22-5.43 15.67-10.9 21.91-18.66 23.19-28.84 21.41-69.75 2.33-100.38 0 0 28.73 4.9 53.83 31.23 12.75 13.38 15.06 31.39 13.53 49.08-1.5 17.45-9.74 37.87-.28 54.28 12.11 20.99 43.65 23.18 62.21 10.51 15.91-10.85 22.5-31.1 22.5-49.66 0-36.75-14.17-66.81-31.03-98.74s-41.74-64.84-44.61-114.39 19.01-88.13 19.01-88.13 25.61-50.95 72.18-73.6c0 0-15.18 15.88-15.18 60.49 0 24.46 12.46 48.18 27.04 67.01 12.83 16.56 25.35 32.79 40.46 47.57 30.77 30.1 83.81 66.35 83.81 114.07 0 44.67-21.77 74.06-21.78 74.08 2.35-3.18 11.29-5.85 14.7-7.94 11.05-6.76 21.39-14.78 30.29-24.21 36.62-38.82 27.23-106.55-14.56-138.76 1.87 1.44 9.86.83 12.25 1.2 11.13 1.76 22.04 4.99 32.44 9.32 63.08 26.24 107.91 96.74 107.32 164.83-.04 4.06-.78 8.16-.78 12.18v659.01l-2444.73006-3z" fill="#ff4034"/></g></svg>