<svg fill="none" height="630" viewBox="0 0 2421 630" width="2421" xmlns="http://www.w3.org/2000/svg" xmlns:xlink="http://www.w3.org/1999/xlink"><clipPath id="a"><path d="m0 0h2421v630h-2421z"/></clipPath><g clip-path="url(#a)"><path d="m-4.02002 456.83s13.86-26.02 42.82002-54.51c12.06-11.87 24.9-23.54 48.18-50.26 21.51-24.7 22.95-46.9 22.95-46.9s3.06 3.89 4.17 11.03-.08 13.65-.08 13.65 7.89-7.46 31.37-16.85c20.26-8.1 36.44-4.33 36.52-4.31-22.77 25.84-38.42 62.42-39.5 90.48-1.82 47.34 48.67 74.37 80.76 74 32.87-.38 60.46-50.74 44.95-103.65-3.92-13.37-13.26-43.94-9.43-61.96 12.32-57.93 55.96-75.92 65.83-125.12 9.56-47.67-7.26-65.83-15.94-81.43 0 0 65.65 18.87 90.03 108.74 14.85 54.76-4.39 116.32-1.69 138.99 1.95 16.41 14.41 48.48 46.59 48.92 47.75.65 39.12-41.43 66.6-94.13 22.72-43.56 48.36-53.9 74.92-61.26-4.93 7.86-19.9 39.55-20.54 87.09-.62 46.16 19.04 79.11 50.75 81.45 29.98 2.21 62.83-53.68 55.58-103.71 0 0 27.22 15.41 42.87 29.96 8.2 7.63 35.3 27.01 48.84 90.08 7.64 35.57 30.05 59.14 55.36 59.05 26.66-.09 36.6-21.73 30.55-48.58-6.04-26.79-15.35-45.28-10.07-80.92 9.74-65.79 38.6-106.23 117.01-127.89-11.74 13.37-22.51 28.95-25.12 46.95-2.68 18.44.52 40.83 10.1 56.94 7.36 12.37 18.61 21.45 33.59 21.45 40.59 0 39.21-56.78 38.9-65.71-2.51-73.78-49.24-81.64-59.57-159.23 0 0 20.12 27.44 52.27 56.72 27.78 25.3 65.12 44.44 90.43 79.83 35.2 49.21 50.82 102 38.72 173.15-6.71 39.44 4.6 74.25 37.7 72.7 48.95-2.29 51.08-75.84 39.17-111.73s-35.45-64.18-35.45-64.18 61.56-8.96 113.08 68.08c35.28 52.76 29.18 162.57 109.36 158.07 20.89-1.17 41.26-22.66 44.53-36.14 11.02-45.51-49.07-73.24-63.41-102.87-21.9-45.23-25.98-112.89 45.8-157.46 0 0-5.31 19.38-4.12 34.88 4.45 57.78 39.14 70.94 67.78 68.15 28.38-2.77 35.92-38.52 31.92-71.39-2.43-19.92-19.13-55.91-36.83-84.96-25.77-42.29 1.37-101.09 5.64-107.45 0 0 2.29 45.73 33.47 81.57 24.9 28.61 69.35 58.32 92.19 103.7 11.62 23.1 11.38 55.52.64 86.17-5.24 14.95-23.16 33.79-33.29 70.88-5.62 20.56.21 44.58 23.64 43.82 6.78-.22 13.78-4 18.54-8.65 9.44-9.21 7.71-21.48 8.59-33.42.8-10.83 3.62-21.8 9.33-31.12 5.06-8.25 12.53-14.87 21.81-17.92-11.8 20.59-4.94 42.74 2.98 55.08 14.56 22.67 38.85 40.16 65.36 37.69 15.45-1.44 41.84-10.71 41.84-45.49s-36.56-71.23-49.26-111.31c-4.01-12.65-2.45-35.16 11-51.52 13.96-16.98 35.01-26.47 55.81-45.51 0 0 3.32 10.62-14.52 53.05-20.3 48.29 24.42 61.43 36.34 61.25 28.91-.44 34.21-32.5 36-44.07 1.88-12.12 1.45-20.54.16-27.81 13.29 4.55 81.78 48.56 100.77 112.22 6.76 22.68 5.86 47.12 9.25 70.38 1.7 11.66 4.53 24.29 11.17 34.22 8.49 12.7 22.85 14.22 31.43.87 0 0 9.44 22.19 42.27 23.42 34.51 1.29 38.88-41.27 36.43-55.15-2.91-16.43-10-31.07-14.87-46.86-17.61-57.03-4.53-122.92 35.15-167.79 7.75-8.76 16.4-16.7 25.68-23.81-1.68 3.16-4.85 9.19-6.21 12.32-4.43 10.22-7.65 21.05-9.06 32.12-2.08 16.33.54 33.34 8.45 47.86 6.77 12.42 22.41 31.42 38.67 28.26 10.93-2.12 15.38-18.39 13.35-27.56-2.7-12.21-11.96-17.87-11.96-17.87s36.72-.99 74.36 36.55c18.76 18.71 29.84 43.36 33.95 78.74 3.3 28.41 12.31 45.82 27.15 43.64 10.2-1.5 24.17-21.79 16.66-55.6-7.33-32.98-27.35-59.88-19.89-97.82 21.55 40.79 116.45 60.26 130.69 170.02.52 4.03.45 38.59.45 42.61l12.29 674.62-2440.70002-26.48z" fill="#ff4034"/></g></svg>