<svg width="375" height="651" viewBox="0 0 375 651" fill="none" xmlns="http://www.w3.org/2000/svg">
<line x1="187.333" y1="-14.46" x2="187.333" y2="660.857" stroke="white" stroke-width="1.25"/>
<path d="M408.416 41.6036C408.416 82.2689 309.439 161.377 187.345 161.377C65.2512 161.377 -33.7256 82.2689 -33.7256 41.6036" stroke="white" stroke-width="1.25"/>
<path d="M249.143 718.196C166.082 718.196 4.50002 549.907 4.50003 342.311C4.50004 134.716 166.082 -33.5728 249.143 -33.5728" stroke="white" stroke-width="1.25"/>
<path d="M126.822 718.196C209.883 718.196 371.465 549.907 371.465 342.311C371.465 134.716 209.883 -33.5728 126.822 -33.5728" stroke="white" stroke-width="1.25"/>
<path d="M511.625 120.603C511.625 178.573 366.44 291.344 187.345 291.344C8.25045 291.344 -136.935 178.573 -136.935 120.603" stroke="white" stroke-width="1.25"/>
<path d="M537.109 269.683C537.109 327.653 380.514 440.424 187.345 440.424C-5.82377 440.424 -162.418 327.653 -162.418 269.683" stroke="white" stroke-width="1.25"/>
<path d="M511.625 404.747C511.625 462.716 366.44 575.487 187.345 575.487C8.25045 575.487 -136.935 462.716 -136.935 404.747" stroke="white" stroke-width="1.25"/>
</svg>
