<svg fill="none" height="630" viewBox="0 0 2421 630" width="2421" xmlns="http://www.w3.org/2000/svg" xmlns:xlink="http://www.w3.org/1999/xlink"><clipPath id="a"><path d="m0 0h2421v630h-2421z"/></clipPath><g clip-path="url(#a)"><path d="m-5.00002 458.25s7.85-10.6 39.51002-34.29c13.55-10.14 48.54-34.41 52.46-71.91 2.37-22.62-4.5-43.4-4.5-43.4s8.02 3.74 14.2 12.69 9.3 18.87 9.3 18.87 6.95-13.18 28.28-26.77c24.18-15.41 46.44-13.36 46.51-13.34-22.77 25.84-35.34 52.68-37.46 80.68-3.75 49.63 35.77 90.72 85.75 88.03 32.82-1.76 71.6-38.06 56.09-90.98-3.92-13.37-15.7-60.35-15.56-78.77.3-37.7 19.72-56.15 55.12-91.72 27.03-27.16 49.21-62.82 22-114.1203 0 0 45.2 28.8903 56.56 105.3103 8.34 56.12-11.31 70.87-9.96 117.55 1.09 37.61 20.36 59.95 52.54 60.39 47.75.65 60.45-50.14 84.74-104.38 4.37-9.76 15.6-40.59 46.68-59.02-5.75 28.31-11.52 43.05-8.2 73.7 4.38 40.39 13.51 33.96 8.05 87.57-4.67 45.93 20.1 59.07 36.67 59.95 30.02 1.59 57.31-29.58 50.06-79.62 0 0 7.42.3 16.12 13.55 6.15 9.36 14.15 16.76 20.32 17.61 16.85 2.32 24.72-12.95 35.06-24.81 11.94-13.68 20.6-16.13 20.64-16.12-22.49 54.37-13.04 82.75-9.28 98.71 8.33 35.42 38.05 58.91 71.43 58.93 26.66.02 38.64-26.23 39.79-53.73 1.58-37.73-17.14-55.1-10.13-114.17 7.84-66.04 73.03-73.17 126.15-135.84-.13 7.28-3.33 26.86-24.42 58.25-11.23 16.71-17.3 33.8-19.37 50.55-1.91 15.41 9.08 68.73 43.33 67.66 47.18-1.46 47.82-50.18 48.66-59.08 3.4-35.81-9.33-73.12-22.75-90.56 0 0 44.18 4.82 96.87 68.47 38.58 46.6 42.57 79.07 24.77 150.38-9.69 38.82 17.22 76.81 53.02 75.1 56.03-2.68 49.04-90.64 37.55-119.7 0 0 4.9.23 10.86 5.35 2.07 1.77 3.83 3.83 5.69 5.81 1.71 1.83 3.75 4.56 6.6 3.8 1.32-.35 2.42-1.3 3.32-2.3 3.17-3.5 4.75-8.47 5.89-12.95 1.56-6.09 2.27-12.4 2.57-18.67 1.24-25.95-4.87-44.34-4.87-44.34s33.17 23.26 51.85 85.01c18.38 60.75 20.49 134.08 100.67 129.59 20.89-1.17 36.75-21.29 40.01-34.76 11.02-45.51-28.43-74.99-42.78-104.62-21.9-45.23-32.06-83.78-3.89-127.69 18.57-28.94 72.53-75.83 80.54-82.64 0 0-12.52 18.81-30.78 80.31-16.49 55.56 18.14 86.16 51.95 79.65 28-5.39 42.43-29.62 38.43-62.5-2.43-19.92-14.73-42.01-26-67.87-19.78-45.4-12.42-69.6-11.1-74.89 0 0 6.12 14.06 30.34 39.32 26.25 27.38 64.29 50.27 87.12 95.65 11.62 23.1 11.51 61.7.77 92.35-5.24 14.95-19.62 34.44-29.75 71.53-5.62 20.56 5.22 47.86 28.66 47.94 22.26.07 28.47-17.16 27.29-40.59-1.19-23.71 7.77-40.69 16.44-49.82-4.37 16.18 7.68 36.66 13.97 42.44 19.85 18.23 34.59 18.53 55.01 34.45 12.23 9.54 14.73 18.44 24.07 18.84 7.15.31 22.19-14.85 22.19-49.63s-34.15-62.39-40.8-103.9c-2.99-18.69.51-38.63 13.96-54.98 13.96-16.98 63.14-46.43 70.16-67.09 0 0 8.29 28.21-9.55 70.63-20.3 48.29-.38 62.74 19.61 62.48 28.91-.37 28.69-29.69 28.49-39.47-.48-23.48 6.93-33.16 9.1-35.18 6.45 21.62 70.94 37.79 89.92 101.45 10.98 36.83 8.6 107.08 29.89 108.64 11.17.02 15.84-15.27 15.98-24.41 0 0 11.41 3.71 23.22 29.77 14.25 31.45 36.88 34.02 50.67 32.04 19.07-2.74 28.97-26.03 24.65-55.62-3.91-26.83-12.69-36.5-21.59-58.95-15.28-38.51-19.29-74.58-13.52-107.79 6.77-38.96 37.12-94.2 65.23-115.87 0 0-16.05 50.47 7.86 97.12 11 21.47 30.63 34.44 40.25 29.94 11.74-5.49 2.76-23.54 2.76-23.54s32 14.61 60.67 48.21c17.2 20.16 30.29 50.36 33.58 72.12 4.28 28.28 9.62 47.09 24.47 44.91 10.2-1.5 23.84-21.11 27.48-35.03 3.12-11.96 1.64-23.7-2.76-35.19-11.41-29.78-34.06-53.96-35.81-90.72-2.12-44.36 21.28-62.51 23.45-63.8 2.95 29.3 16.58 56.04 42.38 73.44 65.97 44.5 85.35 62.55 84.76 130.64-.04 4.06-6.77 69.24-6.77 73.27l12.29 674.62-2441.72002-27.49z" fill="#ff4034"/></g></svg>