<svg fill="none" height="630" viewBox="0 0 2421 630" width="2421" xmlns="http://www.w3.org/2000/svg" xmlns:xlink="http://www.w3.org/1999/xlink"><clipPath id="a"><path d="m0 0h2421v630h-2421z"/></clipPath><g clip-path="url(#a)"><path d="m-5.01978 457.83s21.01998-50.26 63.62998-87.44c65.6298-57.26 116.1998-59.83 116.2698-59.81-22.77 25.84-31.4 60.52-32.48 88.59-1.82 47.34 37.39 78.07 69.48 77.71 32.87-.38 62.6-51.33 47.08-104.25-3.92-13.37-11.07-58.61-4.32-75.76 16.16-41.05 48.36-42.06 58.22-91.26 9.56-47.67-9.72-72.27-18.39-87.87 0 0 92.37 15.33 116.82 125.5 12.29 55.39-18.48 112.57-15.78 135.24 1.95 16.41 16.37 41.91 48.54 41.91 60.63 0 41.48-62.11 70.95-113.71 18.54-32.46 59.6-34.49 69.75-32.42-5.23 8.95-17.43 25.16-18.26 56.7-1.03 39.34 24.21 60.71 51.14 60.71 30.06 0 58.35-58.73 23.35-112.16.38.58 14.5-.96 15.68-.93 14.28.25 28.51 2.85 42.16 6.97 16.99 5.13 33.59 12.33 47.88 23 14.1 10.53 24.51 24.25 32.7 39.7 8 15.09 14.47 31.63 17.47 48.65 1.14 6.47 1.88 13.27 1.93 19.82.05 7.19-1.35 14.29-.96 21.54.47 8.79 2.52 17.76 8.66 24.32 5.58 5.96 13.59 9.73 21.8 9.73 11.43 0 25.19-9.85 19.14-36.7-6.04-26.79-17.52-47.66-12.25-83.3 9.74-65.79 55.65-97.62 88.59-104.85-10.84 16.99-17.02 45.26-5.36 67.89 6.59 12.8 22.03 28.95 43.39 28.95 40.59 0 46.79-47.89 46.59-56.82-.85-38.29-27.48-62.8-49.3-92.73-17.07-23.4-19.15-38.27-20.03-57.06-1.84-39.3702 17.09-59.8002 37.7-71.6402 0 0-10.13 26.15.63 52.3302 10.76 26.18 42.41 52.39 58.49 67.03 27.78 25.3 42.09 43.25 67.4 78.64 35.2 49.21 34.83 91.45 12.89 178.81-9.75 38.8 30.47 63.72 55.76 58.15 42.62-9.38 46.56-55.05 34.65-90.94s-34.06-54.05-34.06-54.05 83.76-7.27 135.27 69.76c18.11 27.07 19.1 61.11 27.81 91.58 6.38 22.33 21.76 45.27 45.06 52.16 32.5 9.6 60.39-16.95 60.89-49.09.73-46.67-60.67-58.12-75.35-98.48-19.49-53.61.62-97.12 48.5-126.85 0 0-22.75 81.49 51.61 81.48 28.51 0 56.59-27.49 51.46-72.36-2.28-19.94-26.18-68.56-43.89-97.61-25.77-42.29-5.12-115.5102 34.84-130.5602 0 0-18.91 46.6002 13.37 97.9902 19.66 31.29 55.38 50.32 79.47 77.96 28.9 33.17 39.75 84.6 18.5 124.96-5.63 10.7-13.48 20.08-19.68 30.47-6.1 10.24-10.57 21.45-13.18 33.08-1.58 7.04-2.46 14.49-.39 21.4s7.7 13.15 14.86 14.07c7.15.92 14.11-3.63 18.15-9.59 6.12-9.02 6.61-20.6 10.99-30.46 7.3-16.4 23.56-37.71 41.38-43.57-11.8 20.59-16.87 43.75-5.69 67.12 11.63 24.31 40.11 35.4 66.63 32.94 47.51-4.41 58.85-63.73 35.16-97.71-8.79-12.61-20.24-23.1-30.57-34.49-21.45-23.65-32.79-53.01-10.11-80.59 13.96-16.98 22.17-21.9 30.43-27.09 0 0-7.39 24.61-4.13 45.35 6.42 40.84 41.4 48.47 53.15 46.4 26.41-4.66 36.88-27.8 38.56-39.38 2.94-20.2.14-26.67-2.02-31.03 13.29 4.55 87.83 45.66 107.1 109.23 13.57 44.77-1.91 65.12 9.79 100.73 8.15 24.8 31.52 37.32 44.87 39.2 24.73 3.48 47.7-6.27 59.66-31.78 13.73-29.31 9.64-56.22 5.09-87.1-4.58-31.04-4.46-65.32 9.26-94.22 15.4-32.43 48.37-49.04 53.01-52.59-1.68 3.16-18.47 43.35-12.23 71.68 8.32 37.74 32.03 47.4 47.87 42.56 13.89-4.24 19.24-21.13 17.54-30.37-4.05-21.97-26.52-31.03-26.52-31.03s23.42-10.95 66.53 24.86c20.38 16.93 32.79 44.6 36.91 79.98 1.51 12.96 3.47 29.74 13.07 39.63 10.92 11.24 27.89 8.19 37.47-2.82 11.98-13.77 14.46-34.48 10.62-51.77-2.93-13.21-22.81-41.46-38.76-76.28-7.2-15.72-8.92-34.76-8.25-50.93 1.44-34.8 31.77-69.73 51.56-80.73-5.53 13.69-15.18 35.54-6.39 55.82 19.58 45.19 90.51 53.69 118.99 104.47 19.7 35.12 31.28 70.41 36.69 112.08.52 4.03 0 74.05 0 78.07l-.79 636.31-2481.72979-8v-713.05z" fill="#ff4034"/></g></svg>